<mxfile host="app.diagrams.net" modified="2023-08-09T07:49:55.677Z" agent="Mozilla/5.0 (X11; Linux x86_64) AppleWebKit/537.36 (KHTML, like Gecko) Chrome/115.0.0.0 Safari/537.36" etag="L63IeyPNzugNn-qt6U9_" version="21.6.7" type="github">
  <diagram name="Page-1" id="ik-ZMRdw2IJW-sGduSAg">
    <mxGraphModel dx="2200" dy="1153" grid="1" gridSize="10" guides="1" tooltips="1" connect="1" arrows="1" fold="1" page="1" pageScale="1" pageWidth="850" pageHeight="1400" math="0" shadow="0">
      <root>
        <mxCell id="0" />
        <mxCell id="1" parent="0" />
        <mxCell id="KDOW9oVPouVbxf520zcc-30" style="edgeStyle=orthogonalEdgeStyle;rounded=0;orthogonalLoop=1;jettySize=auto;html=1;exitX=0;exitY=0.5;exitDx=0;exitDy=0;entryX=0.5;entryY=0;entryDx=0;entryDy=0;" edge="1" parent="1" source="KDOW9oVPouVbxf520zcc-22" target="KDOW9oVPouVbxf520zcc-27">
          <mxGeometry relative="1" as="geometry">
            <mxPoint x="560" y="77.5" as="targetPoint" />
          </mxGeometry>
        </mxCell>
        <mxCell id="KDOW9oVPouVbxf520zcc-22" value="START" style="ellipse;whiteSpace=wrap;html=1;" vertex="1" parent="1">
          <mxGeometry x="40" y="40" width="125" height="75" as="geometry" />
        </mxCell>
        <mxCell id="KDOW9oVPouVbxf520zcc-32" style="edgeStyle=orthogonalEdgeStyle;rounded=0;orthogonalLoop=1;jettySize=auto;html=1;exitX=0.5;exitY=1;exitDx=0;exitDy=0;" edge="1" parent="1" source="KDOW9oVPouVbxf520zcc-23" target="KDOW9oVPouVbxf520zcc-24">
          <mxGeometry relative="1" as="geometry" />
        </mxCell>
        <mxCell id="KDOW9oVPouVbxf520zcc-23" value="GET PLAYER&#39;S INPUT" style="shape=parallelogram;perimeter=parallelogramPerimeter;whiteSpace=wrap;html=1;fixedSize=1;" vertex="1" parent="1">
          <mxGeometry x="435" y="40" width="125" height="75" as="geometry" />
        </mxCell>
        <mxCell id="KDOW9oVPouVbxf520zcc-33" style="edgeStyle=orthogonalEdgeStyle;rounded=0;orthogonalLoop=1;jettySize=auto;html=1;exitX=0.5;exitY=1;exitDx=0;exitDy=0;entryX=0.5;entryY=0;entryDx=0;entryDy=0;" edge="1" parent="1" source="KDOW9oVPouVbxf520zcc-24" target="KDOW9oVPouVbxf520zcc-25">
          <mxGeometry relative="1" as="geometry" />
        </mxCell>
        <mxCell id="KDOW9oVPouVbxf520zcc-24" value="VALIDATE PLAYER&#39;S INPUT" style="rounded=0;whiteSpace=wrap;html=1;" vertex="1" parent="1">
          <mxGeometry x="435" y="200" width="125" height="75" as="geometry" />
        </mxCell>
        <mxCell id="KDOW9oVPouVbxf520zcc-34" style="edgeStyle=orthogonalEdgeStyle;rounded=0;orthogonalLoop=1;jettySize=auto;html=1;exitX=0;exitY=0.5;exitDx=0;exitDy=0;entryX=0;entryY=0.75;entryDx=0;entryDy=0;" edge="1" parent="1" source="KDOW9oVPouVbxf520zcc-25" target="KDOW9oVPouVbxf520zcc-23">
          <mxGeometry relative="1" as="geometry">
            <Array as="points">
              <mxPoint x="420" y="410" />
              <mxPoint x="420" y="95" />
            </Array>
          </mxGeometry>
        </mxCell>
        <mxCell id="KDOW9oVPouVbxf520zcc-66" style="edgeStyle=orthogonalEdgeStyle;rounded=0;orthogonalLoop=1;jettySize=auto;html=1;exitX=0.5;exitY=1;exitDx=0;exitDy=0;entryX=1;entryY=0.5;entryDx=0;entryDy=0;" edge="1" parent="1" source="KDOW9oVPouVbxf520zcc-25" target="KDOW9oVPouVbxf520zcc-36">
          <mxGeometry relative="1" as="geometry" />
        </mxCell>
        <mxCell id="KDOW9oVPouVbxf520zcc-25" value="IS VALID?" style="rhombus;whiteSpace=wrap;html=1;" vertex="1" parent="1">
          <mxGeometry x="447.5" y="360" width="100" height="100" as="geometry" />
        </mxCell>
        <mxCell id="KDOW9oVPouVbxf520zcc-31" style="edgeStyle=orthogonalEdgeStyle;rounded=0;orthogonalLoop=1;jettySize=auto;html=1;exitX=0.5;exitY=1;exitDx=0;exitDy=0;entryX=0.5;entryY=0;entryDx=0;entryDy=0;" edge="1" parent="1" source="KDOW9oVPouVbxf520zcc-27" target="KDOW9oVPouVbxf520zcc-23">
          <mxGeometry relative="1" as="geometry" />
        </mxCell>
        <mxCell id="KDOW9oVPouVbxf520zcc-27" value="READ COMPUTER&#39;S SELECTION" style="shape=parallelogram;perimeter=parallelogramPerimeter;whiteSpace=wrap;html=1;fixedSize=1;" vertex="1" parent="1">
          <mxGeometry x="238" y="40" width="125" height="75" as="geometry" />
        </mxCell>
        <mxCell id="KDOW9oVPouVbxf520zcc-35" value="NO" style="text;html=1;strokeColor=none;fillColor=none;align=center;verticalAlign=middle;whiteSpace=wrap;rounded=0;" vertex="1" parent="1">
          <mxGeometry x="360" y="380" width="60" height="30" as="geometry" />
        </mxCell>
        <mxCell id="KDOW9oVPouVbxf520zcc-43" style="edgeStyle=orthogonalEdgeStyle;rounded=0;orthogonalLoop=1;jettySize=auto;html=1;exitX=0.5;exitY=1;exitDx=0;exitDy=0;entryX=0.5;entryY=0;entryDx=0;entryDy=0;" edge="1" parent="1" source="KDOW9oVPouVbxf520zcc-36" target="KDOW9oVPouVbxf520zcc-41">
          <mxGeometry relative="1" as="geometry" />
        </mxCell>
        <mxCell id="KDOW9oVPouVbxf520zcc-36" value="PLAY ROCK,&lt;br&gt;PAPER, SCISSORS&lt;br&gt;ROUND" style="rounded=0;whiteSpace=wrap;html=1;" vertex="1" parent="1">
          <mxGeometry x="238" y="490" width="125" height="75" as="geometry" />
        </mxCell>
        <mxCell id="KDOW9oVPouVbxf520zcc-38" value="YES" style="text;html=1;strokeColor=none;fillColor=none;align=center;verticalAlign=middle;whiteSpace=wrap;rounded=0;" vertex="1" parent="1">
          <mxGeometry x="195" y="640" width="60" height="30" as="geometry" />
        </mxCell>
        <mxCell id="KDOW9oVPouVbxf520zcc-67" style="edgeStyle=orthogonalEdgeStyle;rounded=0;orthogonalLoop=1;jettySize=auto;html=1;exitX=0;exitY=0.5;exitDx=0;exitDy=0;entryX=-0.016;entryY=0.427;entryDx=0;entryDy=0;entryPerimeter=0;" edge="1" parent="1" source="KDOW9oVPouVbxf520zcc-41" target="KDOW9oVPouVbxf520zcc-36">
          <mxGeometry relative="1" as="geometry">
            <Array as="points">
              <mxPoint x="200" y="670" />
              <mxPoint x="200" y="522" />
            </Array>
          </mxGeometry>
        </mxCell>
        <mxCell id="KDOW9oVPouVbxf520zcc-68" style="edgeStyle=orthogonalEdgeStyle;rounded=0;orthogonalLoop=1;jettySize=auto;html=1;exitX=1;exitY=0.5;exitDx=0;exitDy=0;entryX=1;entryY=0.5;entryDx=0;entryDy=0;" edge="1" parent="1" source="KDOW9oVPouVbxf520zcc-41" target="KDOW9oVPouVbxf520zcc-47">
          <mxGeometry relative="1" as="geometry" />
        </mxCell>
        <mxCell id="KDOW9oVPouVbxf520zcc-41" value="IS DRAW?" style="rhombus;whiteSpace=wrap;html=1;" vertex="1" parent="1">
          <mxGeometry x="447.5" y="620" width="100" height="100" as="geometry" />
        </mxCell>
        <mxCell id="KDOW9oVPouVbxf520zcc-45" value="YES" style="text;html=1;strokeColor=none;fillColor=none;align=center;verticalAlign=middle;whiteSpace=wrap;rounded=0;" vertex="1" parent="1">
          <mxGeometry x="500" y="500" width="60" height="30" as="geometry" />
        </mxCell>
        <mxCell id="KDOW9oVPouVbxf520zcc-51" style="edgeStyle=orthogonalEdgeStyle;rounded=0;orthogonalLoop=1;jettySize=auto;html=1;exitX=0;exitY=1;exitDx=0;exitDy=0;entryX=0.5;entryY=0;entryDx=0;entryDy=0;" edge="1" parent="1" source="KDOW9oVPouVbxf520zcc-47" target="KDOW9oVPouVbxf520zcc-50">
          <mxGeometry relative="1" as="geometry" />
        </mxCell>
        <mxCell id="KDOW9oVPouVbxf520zcc-69" style="edgeStyle=orthogonalEdgeStyle;rounded=0;orthogonalLoop=1;jettySize=auto;html=1;exitX=1;exitY=1;exitDx=0;exitDy=0;entryX=0.76;entryY=0.133;entryDx=0;entryDy=0;entryPerimeter=0;" edge="1" parent="1" source="KDOW9oVPouVbxf520zcc-47" target="KDOW9oVPouVbxf520zcc-53">
          <mxGeometry relative="1" as="geometry" />
        </mxCell>
        <mxCell id="KDOW9oVPouVbxf520zcc-47" value="PLAYER WON?" style="rhombus;whiteSpace=wrap;html=1;" vertex="1" parent="1">
          <mxGeometry x="447.5" y="790" width="100" height="100" as="geometry" />
        </mxCell>
        <mxCell id="KDOW9oVPouVbxf520zcc-49" value="NO" style="text;html=1;strokeColor=none;fillColor=none;align=center;verticalAlign=middle;whiteSpace=wrap;rounded=0;" vertex="1" parent="1">
          <mxGeometry x="570" y="670" width="60" height="30" as="geometry" />
        </mxCell>
        <mxCell id="KDOW9oVPouVbxf520zcc-57" style="edgeStyle=orthogonalEdgeStyle;rounded=0;orthogonalLoop=1;jettySize=auto;html=1;exitX=0.5;exitY=1;exitDx=0;exitDy=0;entryX=0.75;entryY=0;entryDx=0;entryDy=0;" edge="1" parent="1" source="KDOW9oVPouVbxf520zcc-50" target="KDOW9oVPouVbxf520zcc-52">
          <mxGeometry relative="1" as="geometry" />
        </mxCell>
        <mxCell id="KDOW9oVPouVbxf520zcc-50" value="DISPLAY MSG &lt;br&gt;&quot;YOU WON&quot;" style="shape=parallelogram;perimeter=parallelogramPerimeter;whiteSpace=wrap;html=1;fixedSize=1;" vertex="1" parent="1">
          <mxGeometry x="280" y="960" width="125" height="75" as="geometry" />
        </mxCell>
        <mxCell id="KDOW9oVPouVbxf520zcc-61" style="edgeStyle=orthogonalEdgeStyle;rounded=0;orthogonalLoop=1;jettySize=auto;html=1;exitX=0.5;exitY=1;exitDx=0;exitDy=0;entryX=0;entryY=0.5;entryDx=0;entryDy=0;" edge="1" parent="1" source="KDOW9oVPouVbxf520zcc-52" target="KDOW9oVPouVbxf520zcc-60">
          <mxGeometry relative="1" as="geometry" />
        </mxCell>
        <mxCell id="KDOW9oVPouVbxf520zcc-52" value="ADD +1 POINT&lt;br&gt;TO PLAYER&#39;S SCORE" style="rounded=0;whiteSpace=wrap;html=1;" vertex="1" parent="1">
          <mxGeometry x="210" y="1100" width="125" height="75" as="geometry" />
        </mxCell>
        <mxCell id="KDOW9oVPouVbxf520zcc-56" style="edgeStyle=orthogonalEdgeStyle;rounded=0;orthogonalLoop=1;jettySize=auto;html=1;exitX=0.5;exitY=1;exitDx=0;exitDy=0;entryX=0.25;entryY=0;entryDx=0;entryDy=0;" edge="1" parent="1" source="KDOW9oVPouVbxf520zcc-53" target="KDOW9oVPouVbxf520zcc-54">
          <mxGeometry relative="1" as="geometry" />
        </mxCell>
        <mxCell id="KDOW9oVPouVbxf520zcc-53" value="DISPLAY MSG &lt;br&gt;&quot;COMPUTER WON&quot;" style="shape=parallelogram;perimeter=parallelogramPerimeter;whiteSpace=wrap;html=1;fixedSize=1;" vertex="1" parent="1">
          <mxGeometry x="480" y="960" width="125" height="75" as="geometry" />
        </mxCell>
        <mxCell id="KDOW9oVPouVbxf520zcc-62" style="edgeStyle=orthogonalEdgeStyle;rounded=0;orthogonalLoop=1;jettySize=auto;html=1;exitX=0.5;exitY=1;exitDx=0;exitDy=0;entryX=1;entryY=0.5;entryDx=0;entryDy=0;" edge="1" parent="1" source="KDOW9oVPouVbxf520zcc-54" target="KDOW9oVPouVbxf520zcc-60">
          <mxGeometry relative="1" as="geometry" />
        </mxCell>
        <mxCell id="KDOW9oVPouVbxf520zcc-54" value="ADD +1 POINT&lt;br&gt;TO COMPUTER&#39;S SCORE" style="rounded=0;whiteSpace=wrap;html=1;" vertex="1" parent="1">
          <mxGeometry x="482.5" y="1110" width="125" height="75" as="geometry" />
        </mxCell>
        <mxCell id="KDOW9oVPouVbxf520zcc-58" value="YES" style="text;html=1;strokeColor=none;fillColor=none;align=center;verticalAlign=middle;whiteSpace=wrap;rounded=0;" vertex="1" parent="1">
          <mxGeometry x="280" y="870" width="60" height="30" as="geometry" />
        </mxCell>
        <mxCell id="KDOW9oVPouVbxf520zcc-59" value="NO" style="text;html=1;strokeColor=none;fillColor=none;align=center;verticalAlign=middle;whiteSpace=wrap;rounded=0;" vertex="1" parent="1">
          <mxGeometry x="547.5" y="890" width="60" height="30" as="geometry" />
        </mxCell>
        <mxCell id="KDOW9oVPouVbxf520zcc-60" value="END" style="ellipse;whiteSpace=wrap;html=1;" vertex="1" parent="1">
          <mxGeometry x="350" y="1220" width="125" height="75" as="geometry" />
        </mxCell>
      </root>
    </mxGraphModel>
  </diagram>
</mxfile>
